<svg width="128" height="128" viewBox="0 0 128 128" fill="none"
  xmlns="http://www.w3.org/2000/svg">
  <circle cx="64" cy="64" r="64" fill="#F1F4F6"/>
  <circle cx="64" cy="64" r="63.5" stroke="black" stroke-opacity="0.2"/>
  <circle cx="20.6469" cy="78.6468" r="12.5" transform="rotate(48.3842 20.6469 78.6468)" fill="white"/>
  <circle cx="31.8216" cy="91.6878" r="12.5" transform="rotate(48.3842 31.8216 91.6878)" fill="#BBD3EA"/>
  <circle cx="49.6469" cy="91.6468" r="12.5" transform="rotate(48.3842 49.6469 91.6468)" fill="white"/>
  <circle cx="60.8216" cy="104.688" r="12.5" transform="rotate(48.3842 60.8216 104.688)" fill="#BBD3EA"/>
  <path d="M19.52 67C19.1467 67 18.5467 66.8667 17.72 66.6C16.92 66.3067 14.8933 65.52 11.64 64.24C8.89333 63.1467 6.93333 62.1733 5.76 61.32C4.58667 60.4667 4 59.5467 4 58.56C4 57.5467 4.64 56.5733 5.92 55.64C7.22667 54.68 9.22667 53.6933 11.92 52.68C13.3067 52.1467 14.9333 51.6 16.8 51.04C18.6667 50.4533 19.8667 50.16 20.4 50.16C21.04 50.16 21.5333 50.3733 21.88 50.8C22.2533 51.2267 22.44 51.7467 22.44 52.36C22.44 52.92 22.2533 53.3867 21.88 53.76C21.5333 54.1067 20.9733 54.3867 20.2 54.6L18.88 54.96C18.6667 55.0133 18.0533 55.1867 17.04 55.48C16.0267 55.7467 14.8667 56.12 13.56 56.6C12.0667 57.16 10.96 57.5867 10.24 57.88C9.54667 58.1733 9.2 58.4267 9.2 58.64C9.2 58.7733 10.0133 59.1067 11.64 59.64C11.96 59.7467 12.5333 59.9467 13.36 60.24C15.6533 61.12 17.8933 61.9467 20.08 62.72C21.3333 63.1733 21.96 63.9067 21.96 64.92C21.96 65.5333 21.72 66.04 21.24 66.44C20.7867 66.8133 20.2133 67 19.52 67ZM49.0628 42.4C50.0495 42.4 50.7695 42.6533 51.2228 43.16C51.7028 43.6667 51.9428 44.4533 51.9428 45.52C51.9428 47.6267 51.9295 49.2133 51.9028 50.28L51.8628 56.2C51.8628 60.2533 51.7428 63.28 51.5028 65.28C51.2895 67.28 50.8761 68.6667 50.2628 69.44C49.6495 70.2133 48.7161 70.6 47.4628 70.6C46.5028 70.6 45.6095 70.2933 44.7828 69.68C43.9828 69.0667 43.0628 68.0533 42.0228 66.64C41.0095 65.2267 39.5828 63.0533 37.7428 60.12L33.0228 52.48C33.0495 53.4667 33.0628 55.3067 33.0628 58L33.1028 68.2C33.1028 68.8933 32.8228 69.48 32.2628 69.96C31.7295 70.44 31.0361 70.68 30.1828 70.68C29.3295 70.68 28.6228 70.4533 28.0628 70C27.5295 69.52 27.2628 68.92 27.2628 68.2V57.76L27.2228 53.4C27.1961 52.6533 27.1828 51.6 27.1828 50.24C27.1828 48.2667 27.2628 46.7467 27.4228 45.68C27.6095 44.6133 27.9428 43.8533 28.4228 43.4C28.9028 42.92 29.6228 42.68 30.5828 42.68C31.5161 42.68 32.3561 42.96 33.1028 43.52C33.8761 44.08 34.7695 45.08 35.7828 46.52C36.8228 47.96 38.3695 50.32 40.4228 53.6C41.5161 55.3333 43.1428 57.9733 45.3028 61.52L46.0628 62.8V56.2L46.1028 44.88C46.1028 44.16 46.3428 43.5733 46.8228 43.12C47.3028 42.64 48.0495 42.4 49.0628 42.4ZM74.6144 43.32C75.4144 43.4 76.041 43.64 76.4944 44.04C76.9477 44.4133 77.1744 45.0533 77.1744 45.96C77.1744 46.8933 76.9077 47.5733 76.3744 48C75.8677 48.4267 75.1344 48.6133 74.1744 48.56C72.2544 48.4267 70.681 48.36 69.4544 48.36C69.241 51.3733 69.0944 54.3867 69.0144 57.4C68.9344 60.3867 68.8944 64.1733 68.8944 68.76C68.8944 69.7467 68.6944 70.44 68.2944 70.84C67.921 71.2133 67.1877 71.4 66.0944 71.4C64.9477 71.4 64.121 71.2 63.6144 70.8C63.1077 70.4 62.8544 69.7333 62.8544 68.8C62.8544 64.9067 62.9477 61.1067 63.1344 57.4L63.6144 48.4C62.441 48.4533 61.4944 48.5067 60.7744 48.56L59.0144 48.68C58.9077 48.7067 58.7477 48.72 58.5344 48.72C57.761 48.72 57.1344 48.4667 56.6544 47.96C56.1744 47.4533 55.9344 46.7867 55.9344 45.96C55.9344 45.1867 56.1344 44.6133 56.5344 44.24C56.961 43.8667 57.5477 43.6267 58.2944 43.52C59.2544 43.3867 60.601 43.28 62.3344 43.2C64.0677 43.12 65.6677 43.08 67.1344 43.08C68.3344 43.08 69.6944 43.1067 71.2144 43.16C72.761 43.1867 73.8944 43.24 74.6144 43.32ZM85.1672 71C84.3672 71 83.7405 70.8933 83.2872 70.68C82.8605 70.4667 82.5005 70.1067 82.2072 69.6C82.0472 69.3067 81.9672 69 81.9672 68.68C81.9672 68.3867 82.0605 67.9333 82.2472 67.32L93.0472 35.76C93.3139 34.9067 94.0339 34.48 95.2072 34.48C95.7405 34.48 96.2739 34.6267 96.8072 34.92C97.3405 35.2133 97.7005 35.56 97.8872 35.96C98.0472 36.28 98.1272 36.6267 98.1272 37C98.1272 37.2933 98.0472 37.6533 97.8872 38.08L87.1272 69.4C86.9405 69.9067 86.6739 70.3067 86.3272 70.6C85.9805 70.8667 85.5939 71 85.1672 71ZM106.647 67C105.98 67 105.447 66.84 105.047 66.52C104.647 66.1733 104.447 65.7067 104.447 65.12C104.447 63.9467 104.993 63.1467 106.087 62.72C107.74 62.0267 109.98 61.16 112.807 60.12C114.913 59.3467 115.967 58.8267 115.967 58.56C115.967 58.4 115.74 58.2133 115.287 58C114.86 57.7867 113.993 57.4 112.687 56.84C111.407 56.3067 110.273 55.8933 109.287 55.6C108.327 55.28 107.207 54.9467 105.927 54.6C104.46 54.2 103.727 53.4533 103.727 52.36C103.727 51.72 103.927 51.2267 104.327 50.88C104.727 50.5333 105.247 50.36 105.887 50.36C106.527 50.36 107.767 50.6267 109.607 51.16C111.447 51.6933 112.993 52.2 114.247 52.68C116.993 53.7467 118.993 54.7467 120.247 55.68C121.527 56.5867 122.167 57.5467 122.167 58.56C122.167 59.5467 121.593 60.4533 120.447 61.28C119.3 62.08 117.327 63.0667 114.527 64.24C112.1 65.2533 110.287 65.9733 109.087 66.4C107.887 66.8 107.073 67 106.647 67Z" fill="#1C3D73"/>
</svg>
