<?xml version="1.0" standalone="no"?>
<!DOCTYPE svg PUBLIC "-//W3C//DTD SVG 20010904//EN"
 "http://www.w3.org/TR/2001/REC-SVG-20010904/DTD/svg10.dtd">
<svg version="1.0" xmlns="http://www.w3.org/2000/svg"
 width="560.000000pt" height="560.000000pt" viewBox="0 0 560.000000 560.000000"
 preserveAspectRatio="xMidYMid meet">
<metadata>
Created by potrace 1.14, written by Peter Selinger 2001-2017
</metadata>
<g transform="translate(0.000000,560.000000) scale(0.100000,-0.100000)"
fill="#000000" stroke="none">
<path d="M2530 5190 c-383 -47 -710 -187 -832 -357 -143 -199 -374 -681 -521
-1088 -169 -468 -237 -767 -237 -1047 0 -401 111 -819 264 -993 88 -102 180
-127 375 -106 57 6 105 10 107 9 1 -2 0 -24 -3 -50 -5 -47 -6 -47 -70 -78
-150 -70 -340 -214 -456 -346 -66 -76 -187 -254 -187 -275 0 -23 146 -175 265
-277 178 -153 401 -294 595 -377 86 -37 212 -85 224 -85 3 0 6 205 6 455 0
250 2 455 5 455 2 0 34 -16 70 -36 l65 -36 0 -443 0 -442 88 -18 c170 -34 269
-46 432 -52 572 -21 1126 163 1585 527 101 80 325 305 325 326 0 24 -118 198
-187 278 -116 132 -306 276 -457 347 -61 28 -66 33 -66 62 -1 28 -11 65 -34
117 -5 13 17 15 171 15 174 0 179 1 229 27 159 84 288 326 350 655 25 134 30
439 10 588 -62 450 -256 1030 -517 1545 -182 361 -254 451 -423 534 -150 74
-310 118 -546 151 -136 19 -522 28 -630 15z m80 -1054 c113 -91 255 -183 390
-255 74 -38 106 -60 96 -64 -19 -7 -21 -48 -4 -65 9 -9 8 -12 -3 -15 -26 -8
-164 -55 -209 -72 -61 -23 -138 -15 -221 24 -37 16 -87 35 -113 42 -37 9 -44
14 -35 25 6 7 9 23 7 36 -9 68 -304 61 -445 -10 -22 -11 -72 -22 -118 -27 -44
-3 -91 -9 -105 -12 -19 -5 1 21 80 103 148 153 249 290 345 467 l47 88 102
-98 c55 -54 139 -129 186 -167z m918 -330 c28 -22 50 -42 47 -44 -10 -11 -109
57 -128 88 l-22 35 26 -20 c14 -11 49 -38 77 -59z m-1067 -234 c101 -40 132
-91 133 -217 0 -106 -21 -162 -85 -219 -87 -80 -190 -111 -364 -110 -198 0
-292 43 -350 158 -27 54 -29 68 -29 160 1 161 41 208 209 250 11 2 112 4 225
2 185 -2 211 -4 261 -24z m1240 0 c101 -40 131 -90 132 -216 1 -107 -21 -164
-84 -220 -87 -80 -190 -111 -364 -110 -198 0 -292 43 -350 158 -27 54 -29 68
-29 160 0 161 40 208 209 250 11 2 112 4 225 2 185 -2 211 -4 261 -24z m-813
-153 l32 -11 0 -77 c0 -158 68 -295 180 -362 88 -53 236 -76 384 -60 205 23
350 116 402 259 10 26 22 52 27 57 15 16 0 -359 -18 -440 -49 -226 -137 -394
-289 -553 -87 -91 -141 -133 -255 -203 l-76 -45 0 -260 c0 -244 -2 -262 -23
-318 -76 -201 -244 -320 -452 -320 -208 0 -376 119 -452 320 -21 56 -23 74
-23 318 l0 260 -76 45 c-114 70 -168 112 -255 203 -152 159 -240 328 -289 553
-9 41 -18 146 -20 255 -6 198 -8 194 42 80 71 -162 260 -239 517 -211 270 30
422 173 434 408 3 54 9 86 18 94 34 28 115 31 192 8z m652 -2799 l0 -411 -25
-24 c-13 -14 -33 -25 -45 -25 -12 0 -32 11 -45 25 l-25 24 0 375 0 374 63 35
c34 20 65 36 70 36 4 1 7 -184 7 -409z"/>
<path d="M2218 3464 c-77 -41 -75 -169 2 -209 84 -43 180 13 180 105 0 92 -99
149 -182 104z"/>
<path d="M3258 3464 c-77 -41 -75 -169 2 -209 60 -31 137 -10 165 45 57 110
-58 223 -167 164z"/>
<path d="M2458 2755 c62 -70 77 -147 43 -220 -32 -71 -117 -134 -179 -135 -15
0 -21 -4 -16 -11 4 -8 30 -10 75 -7 94 7 158 46 204 123 10 16 15 15 65 -11
49 -26 65 -29 150 -29 85 0 101 3 150 28 50 26 56 27 65 12 46 -77 110 -116
204 -123 74 -5 107 11 43 22 -61 9 -127 60 -156 118 -42 83 -30 158 36 233
l38 43 -37 -11 c-57 -17 -131 -96 -139 -148 -7 -39 -11 -43 -63 -67 -80 -37
-202 -37 -282 0 -52 24 -56 28 -63 67 -8 52 -82 131 -139 148 l-37 11 38 -43z"/>
</g>
</svg>
